<svg xmlns="http://www.w3.org/2000/svg" width="41.594" height="41.594" viewBox="0 0 41.594 41.594"><defs><style>.a{fill:#ba3143;}</style></defs><g transform="translate(44.969 -3.375) rotate(90)"><path class="a" d="M10.545,14.984a1.937,1.937,0,0,0,0,2.73l9.569,9.539a1.928,1.928,0,0,0,2.66.06l9.429-9.4a1.927,1.927,0,1,0-2.72-2.73l-8.1,7.979-8.109-8.189A1.928,1.928,0,0,0,10.545,14.984Z" transform="translate(2.789 4.658)"/><path class="a" d="M3.375,24.172a20.8,20.8,0,1,0,20.8-20.8A20.794,20.794,0,0,0,3.375,24.172ZM36.61,11.734A17.59,17.59,0,1,1,11.734,36.61,17.59,17.59,0,1,1,36.61,11.734Z" transform="translate(0 0)"/></g></svg>