<svg xmlns="http://www.w3.org/2000/svg" width="41.594" height="41.594" viewBox="0 0 41.594 41.594"><defs><style>.a{fill:#ba3143;}</style></defs><g transform="translate(41.594) rotate(90)"><path class="a" d="M.562,12.831a1.937,1.937,0,0,1,0-2.73L10.131.563A1.928,1.928,0,0,1,12.791.5l9.429,9.4a1.927,1.927,0,1,1-2.72,2.73L11.4,4.652,3.292,12.841A1.928,1.928,0,0,1,.562,12.831Z" transform="translate(9.396 12.495)"/><path class="a" d="M0,20.8a20.8,20.8,0,1,1,20.8,20.8A20.794,20.794,0,0,1,0,20.8ZM33.235,33.235A17.59,17.59,0,1,0,8.359,8.359,17.59,17.59,0,1,0,33.235,33.235Z"/></g></svg>