<svg xmlns="http://www.w3.org/2000/svg" width="278.397" height="110.7" viewBox="0 0 278.397 110.7"><defs><style>.a{fill:#ba3143;}.b{fill:#72cbcb;}</style></defs><g transform="translate(3835.88 3769.43)"><path class="a" d="M158.52,141.19H169.2v2.7h-3.6V155h-3.364V143.888h-3.659Z" transform="translate(-3892.167 -3910.62)"/><path class="a" d="M190.713,149.175h-5.156v5.593H182.28V141.19h3.277v5.32h5.156v-5.32h3.277v13.578h-3.277Z" transform="translate(-3889.973 -3910.62)"/><path class="a" d="M216.4,143.844H211.39v2.742h4.369v2.556H211.39v2.971H216.4v2.654H208.08V141.19H216.4Z" transform="translate(-3887.591 -3910.62)"/><path class="b" d="M75.307,211.431a2.49,2.49,0,0,0,2.72,2.436c2.862,0,6.663-2.938,10.028-12.245a4.9,4.9,0,0,1,4.719-3.222c2.185,0,4.293,1.365,4.293,3.583a4.074,4.074,0,0,1-.208,1.289c-5.014,14.823-12.748,19.116-19.761,19.116-6.554,0-12.169-3.867-12.169-10.6a19.258,19.258,0,0,1,1-4.588c2.283-6.652,5.287-15.173,7.581-21.9,1.092-3.364,3.506-4.937,5.735-4.937a4.621,4.621,0,0,1,4.8,4.8A10.989,10.989,0,0,1,83.4,187.8l-7.876,22.48A3.638,3.638,0,0,0,75.307,211.431Zm4.009-43.6a5.877,5.877,0,1,1,2.86,5.3A5.877,5.877,0,0,1,79.316,167.835Z" transform="translate(-3900.81 -3908.679)"/><path class="b" d="M129.033,196.8c2.185,0,4.227,1.212,4.227,3.506a4.838,4.838,0,0,1-.36,1.649c-4.937,13.96-12.737,18.9-20.045,18.9-6.084,0-11.524-3.506-11.524-10.093a14.692,14.692,0,0,1,.928-4.73l5.232-14.747a6.29,6.29,0,0,0,.35-1.791,2.108,2.108,0,0,0-2.185-2.185c-2,0-4.511,1.715-6.445,5.3-2.436,6.871-5.866,16.68-8.367,23.628a6.882,6.882,0,0,1-6.445,4.8c-2.294,0-4.369-1.365-4.369-4.009a5.364,5.364,0,0,1,.284-1.791l11.961-33.437a4.675,4.675,0,0,1,4.653-2.927c1.933,0,3.714.71,4.151,2a11.186,11.186,0,0,1,6.871-2,10.279,10.279,0,0,1,10.6,10.017,12.016,12.016,0,0,1-.786,3.943l-5.582,15.894a6.4,6.4,0,0,0-.36,1.781c0,1.223.71,1.868,2,1.868,3.364,0,7.308-3.506,10.454-12.1A4.894,4.894,0,0,1,129.033,196.8Z" transform="translate(-3899.416 -3907.142)"/><path class="b" d="M148.6,199.067c2.185,0,4.293,1.365,4.293,3.507a5.528,5.528,0,0,1-.284,1.431c-4.074,11.743-11.743,18.57-20.9,18.57-7.373,0-13.895-4.293-13.895-11.6a14.91,14.91,0,0,1,.863-4.8v.076L124.691,189h-2.359c-1.933,0-3.146-1.715-3.146-3.725,0-2.283,1.639-4.719,5.462-4.719h3.015l5.724-15.97a5.669,5.669,0,0,1,5.221-4.151,4.686,4.686,0,0,1,5.014,4.8,4.927,4.927,0,0,1-.218,1.365l-4.8,13.96h3.277c2.72,0,3.943,1.638,3.943,3.506,0,2.359-1.933,4.937-5.593,4.937h-4.653l-7.013,19.979a6.039,6.039,0,0,0-.284,1.573c0,1.933,1.573,3.506,4.151,3.506,4.151,0,8.662-3.79,11.524-11.666A4.937,4.937,0,0,1,148.6,199.067Z" transform="translate(-3895.926 -3908.844)"/><path class="b" d="M180.752,197.371c2.185,0,4.151,1.223,4.151,3.441a4.369,4.369,0,0,1-.284,1.5c-4.73,13.676-16.036,18.57-25.987,18.57-10.454,0-18.472-5.3-18.472-13.818a16.386,16.386,0,0,1,.918-5.1l4.227-12.245a15.806,15.806,0,0,1,15.107-10.924c8.083,0,13.458,5.221,13.458,12.016a15.717,15.717,0,0,1-.579,3.932,14.627,14.627,0,0,1-14.2,10.53,14.256,14.256,0,0,1-7.526-2.185L151,204.449a5.177,5.177,0,0,0-.361,2c0,3.277,3.277,5.8,8.52,5.8a17.87,17.87,0,0,0,16.756-11.664A4.828,4.828,0,0,1,180.752,197.371Zm-24.774-6.554-1.5,4.3a7.734,7.734,0,0,0,3.714.852c2.185,0,4.3-.852,5.014-3.277a4.707,4.707,0,0,0,.284-1.715,3.4,3.4,0,0,0-3.277-3.725,4.839,4.839,0,0,0-4.238,3.528Z" transform="translate(-3893.863 -3907.148)"/><path class="b" d="M211.281,197.463c2.283,0,4.653,1.431,4.653,3.583a3.691,3.691,0,0,1-.218,1.147c-4.227,12.092-11.306,19.04-19.116,19.04-5.942,0-10.923-4.085-10.923-10.312a13.7,13.7,0,0,1,.863-4.577l3.146-8.739a4.884,4.884,0,0,0,.218-1.289c0-2.436-2.654-2.938-4.653-3.583l-3.976,10.694a5.232,5.232,0,0,1-4.937,3.441,3.561,3.561,0,0,1-3.867-3.583,6.924,6.924,0,0,1,.208-1.573l5.232-14.1a8.269,8.269,0,0,1-1.791-5.079c0-4.085,2.5-7.81,6.729-7.81a6.292,6.292,0,0,1,6.161,6.084,5.09,5.09,0,0,1-.295,1.791c4.009,1.223,12.606,4.085,12.606,10.923a13.679,13.679,0,0,1-.721,3.932l-4.216,11.743a4.533,4.533,0,0,0-.295,1.573c0,1.005.5,1.934,1.507,1.934,3,0,6.652-5.232,9.383-12.245A4.184,4.184,0,0,1,211.281,197.463Z" transform="translate(-3890.879 -3907.524)"/><path class="b" d="M246.933,196.8c2.185,0,4.216,1.212,4.216,3.506a4.837,4.837,0,0,1-.36,1.649c-4.937,13.96-12.737,18.9-20.045,18.9-6.084,0-11.524-3.506-11.524-10.093a14.7,14.7,0,0,1,.928-4.73l5.232-14.747a5.983,5.983,0,0,0,.36-1.791,2.108,2.108,0,0,0-2.185-2.185c-2,0-4.5,1.715-6.434,5.3-2.436,6.871-5.877,16.68-8.378,23.628a6.871,6.871,0,0,1-6.445,4.8c-2.294,0-4.369-1.365-4.369-4.009a5.656,5.656,0,0,1,.284-1.791l11.961-33.437a4.675,4.675,0,0,1,4.653-2.927c1.933,0,3.725.71,4.151,2a11.207,11.207,0,0,1,6.871-2,10.279,10.279,0,0,1,10.6,10.017,12.017,12.017,0,0,1-.786,3.943l-5.582,15.894a6.4,6.4,0,0,0-.36,1.781c0,1.223.721,1.868,2.01,1.868,3.364,0,7.3-3.506,10.443-12.1A4.916,4.916,0,0,1,246.933,196.8Z" transform="translate(-3888.528 -3907.142)"/><path class="a" d="M245.687,211.431a2.5,2.5,0,0,0,2.731,2.436c2.862,0,6.652-2.938,10.017-12.245a4.926,4.926,0,0,1,4.73-3.222c2.185,0,4.293,1.365,4.293,3.583a4.1,4.1,0,0,1-.219,1.289c-5.014,14.823-12.737,19.116-19.76,19.116-6.554,0-12.169-3.867-12.169-10.6a19.806,19.806,0,0,1,1-4.588c2.294-6.652,5.3-15.173,7.646-21.9,1.092-3.364,3.506-4.937,5.724-4.937a4.61,4.61,0,0,1,4.8,4.8,10.989,10.989,0,0,1-.645,2.643l-7.941,22.481A3.637,3.637,0,0,0,245.687,211.431Zm4.009-43.6a5.877,5.877,0,1,1,2.86,5.3,5.877,5.877,0,0,1-2.86-5.3Z" transform="translate(-3885.076 -3908.678)"/><path class="a" d="M260.885,189.315a3.539,3.539,0,0,1-3.583-3.725c0-2.294,1.868-4.8,6.3-4.8h1.868l4.369-12.311c2.654-7.45,8.739-10.924,14.823-10.924a10.924,10.924,0,0,1,11.1,11.033,13.413,13.413,0,0,1-.36,2.862c-.787,3.506-3.146,4.937-5.462,4.937-2.5,0-4.937-1.715-4.937-4.227a4.293,4.293,0,0,1,.5-2,4.882,4.882,0,0,0,.208-1.365,1.846,1.846,0,0,0-2.075-2.075,3.736,3.736,0,0,0-3.146,2.8l-4.009,11.24h2.938a3.878,3.878,0,0,1,4.151,3.867,4.675,4.675,0,0,1-4.937,4.577l-5.232.076-19.749,56.365c-1.147,3.364-3.43,4.73-5.658,4.73a4.992,4.992,0,0,1-5.145-4.937,6.827,6.827,0,0,1,.426-2.294l19.116-53.831Z" transform="translate(-3884.38 -3909.109)"/><path class="a" d="M285.719,210.323a1.923,1.923,0,0,0,2.075,2.075c1.933,0,4.446-1.431,6.729-5.3l8.236-24.2a5.462,5.462,0,0,1,5.156-4.074,5.1,5.1,0,0,1,5.221,4.937,5.241,5.241,0,0,1-.284,1.715l-10.093,29.144a25.5,25.5,0,0,0,13.032-14.463c1-2.8,3.08-4.009,5.014-4.009a3.8,3.8,0,0,1,4.009,3.867,4.564,4.564,0,0,1-.295,1.639c-4.937,15.042-15.457,20.623-25.692,23.846-1.092,2.938-2.185,6.084-3.222,9.088-3.015,8.3-9.667,12.1-16.757,12.1s-13.458-4.588-13.458-11.524c0-8.815,8.662-12.387,17.4-14.321-4.653-.929-8.094-4.446-8.094-9.307a11.536,11.536,0,0,1,.721-4.009L284.08,182.9a5.462,5.462,0,0,1,5.145-4.074,5.1,5.1,0,0,1,5.232,4.937,6.235,6.235,0,0,1-.437,2.185l-7.941,22.557a5.985,5.985,0,0,0-.36,1.813Zm-9.165,23.562a4.062,4.062,0,0,0-.284,1.5,2.185,2.185,0,0,0,2.359,2.294A5.844,5.844,0,0,0,284,233.666l1.715-4.872C281.065,230.018,277.559,231.372,276.554,233.884Z" transform="translate(-3882.298 -3907.144)"/></g></svg>