<svg xmlns="http://www.w3.org/2000/svg" width="105" height="106" viewBox="0 0 105 106"><defs><style>.a,.d{fill:none;}.a{stroke:#fff;stroke-width:2px;}.b{fill:#fff;}.c{stroke:none;}</style></defs><g transform="translate(0 0.001)"><g class="a" transform="translate(0 -0.001)"><ellipse class="c" cx="52.5" cy="53" rx="52.5" ry="53"/><ellipse class="d" cx="52.5" cy="53" rx="51.5" ry="52"/></g><g transform="translate(27.758 28.466)"><path class="b" d="M1011.009-896.615a77.25,77.25,0,0,1,10.981.345c6.4,1.087,10.515,4.788,11.427,11.074a81.137,81.137,0,0,1-.268,27.51,12,12,0,0,1-11.443,9.933,146.933,146.933,0,0,1-24.41.01,12.173,12.173,0,0,1-11.67-10.7,91.651,91.651,0,0,1-.089-27.028c.884-6.157,5.445-9.8,11.8-10.654a38.614,38.614,0,0,1,6.41-.5C1005.9-896.564,1008.052-896.615,1011.009-896.615Zm18.369,24.815c0-3.575.106-7.153-.026-10.724-.183-4.885-3.044-8.629-7.84-9.061a94.015,94.015,0,0,0-24.574.272,8.42,8.42,0,0,0-7.313,8.59c-.367,7.148-.259,14.305.021,21.453a8.838,8.838,0,0,0,8.325,9.15,157.865,157.865,0,0,0,22.219.093,9.573,9.573,0,0,0,9.209-9.322,64.078,64.078,0,0,0-.016-10.451Z" transform="translate(-984.58 896.676)"/><path class="b" d="M1032.656-861.229a12.553,12.553,0,0,1-12.325,12.319,12.7,12.7,0,0,1-9.166-3.711,12.7,12.7,0,0,1-3.727-9.16,12.6,12.6,0,0,1,12.474-12.444,12.626,12.626,0,0,1,9.138,3.786A12.627,12.627,0,0,1,1032.656-861.229ZM1020-853.477a7.936,7.936,0,0,0,5.778-2.291,7.938,7.938,0,0,0,2.356-5.752,7.94,7.94,0,0,0-2.284-5.783,7.939,7.939,0,0,0-5.751-2.363,7.939,7.939,0,0,0-5.779,2.292,7.938,7.938,0,0,0-2.355,5.753,7.93,7.93,0,0,0,2.285,5.787,7.93,7.93,0,0,0,5.758,2.357Z" transform="translate(-995.151 886.32)"/><path class="b" d="M1049.815-877.816a2.83,2.83,0,0,1,.948-2.089,2.833,2.833,0,0,1,2.185-.7,2.693,2.693,0,0,1,2.05.844,2.694,2.694,0,0,1,.722,2.1,2.8,2.8,0,0,1-.9,2.17,2.805,2.805,0,0,1-2.232.728,2.828,2.828,0,0,1-2.047-.924,2.829,2.829,0,0,1-.729-2.124Z" transform="translate(-1014.754 889.267)"/></g></g></svg>