<svg xmlns="http://www.w3.org/2000/svg" width="107" height="106" viewBox="0 0 107 106"><defs><style>.a,.d{fill:none;}.a{stroke:#fff;stroke-width:2px;}.b{fill:#fff;}.c{stroke:none;}</style></defs><g transform="translate(0.316 0.001)"><g class="a" transform="translate(-0.316 -0.001)"><ellipse class="c" cx="53.5" cy="53" rx="53.5" ry="53"/><ellipse class="d" cx="53.5" cy="53" rx="52.5" ry="52"/></g><g transform="translate(28.466 30.525)"><path class="b" d="M6-.668c-3.625,0-6,2.38-6,5.509a5.486,5.486,0,0,0,5.856,5.508h.069c3.7,0,6-2.448,6-5.508C11.852,1.712,9.621-.668,6-.668Zm0,0" transform="translate(0 0.668)"/><path class="b" d="M8.109,198.313h10.6V230.2H8.109Zm0,0" transform="translate(-7.483 -182.943)"/><path class="b" d="M241.363,188.625c-5.717,0-9.55,5.372-9.55,5.372v-4.624h-10.6v31.883h10.6v-17.8a7.263,7.263,0,0,1,.349-2.586,5.8,5.8,0,0,1,5.437-3.875c3.835,0,5.368,2.924,5.368,7.21v17.056h10.6V202.975c0-9.793-5.228-14.35-12.2-14.35Zm0,0" transform="translate(-204.128 -174.003)"/></g></g></svg>