<svg xmlns="http://www.w3.org/2000/svg" width="409.887" height="162.986" viewBox="0 0 409.887 162.986"><defs><style>.a{fill:#fff;}.b{fill:#72cbcb;}</style></defs><g transform="translate(3835.88 3769.43)"><path class="a" d="M158.52,141.19h15.729v3.972h-5.307v16.356h-4.954V145.162H158.6Z" transform="translate(-3843.881 -3910.62)"/><path class="a" d="M194.7,152.947H187.1v8.234H182.28V141.19H187.1v7.832H194.7V141.19h4.825v19.991H194.7Z" transform="translate(-3829.429 -3910.62)"/><path class="a" d="M220.335,145.1h-7.382v4.037h6.433V152.9h-6.433v4.375h7.382v3.908H208.08V141.19h12.255Z" transform="translate(-3813.735 -3910.62)"/><path class="b" d="M80.209,234.678a3.667,3.667,0,0,0,4,3.586c4.214,0,9.81-4.326,14.764-18.029a7.221,7.221,0,0,1,6.948-4.744c3.217,0,6.321,2.01,6.321,5.275a6,6,0,0,1-.306,1.9c-7.382,21.824-18.769,28.145-29.094,28.145-9.65,0-17.916-5.693-17.916-15.6a28.354,28.354,0,0,1,1.48-6.755c3.361-9.794,7.784-22.339,11.161-32.246,1.608-4.954,5.163-7.269,8.443-7.269a6.8,6.8,0,0,1,7.06,7.06,16.179,16.179,0,0,1-.949,3.892l-11.6,33.1A5.357,5.357,0,0,0,80.209,234.678Zm5.9-64.186a8.653,8.653,0,1,1,4.211,7.8A8.653,8.653,0,0,1,86.111,170.492Z" transform="translate(-3900.81 -3897.833)"/><path class="b" d="M152.178,205.274c3.217,0,6.224,1.785,6.224,5.163a7.124,7.124,0,0,1-.531,2.428c-7.269,20.554-18.752,27.823-29.512,27.823-8.958,0-16.967-5.163-16.967-14.861a21.632,21.632,0,0,1,1.367-6.964l7.7-21.712a9.262,9.262,0,0,0,.515-2.638,3.1,3.1,0,0,0-3.217-3.217c-2.943,0-6.642,2.525-9.489,7.8-3.586,10.116-8.636,24.558-12.319,34.787a10.132,10.132,0,0,1-9.489,7.06c-3.377,0-6.433-2.01-6.433-5.9a7.9,7.9,0,0,1,.418-2.638l17.611-49.229a6.883,6.883,0,0,1,6.851-4.31c2.847,0,5.468,1.045,6.111,2.943a16.469,16.469,0,0,1,10.116-2.943,15.134,15.134,0,0,1,15.6,14.748,17.691,17.691,0,0,1-1.158,5.806l-8.218,23.4a9.423,9.423,0,0,0-.531,2.622c0,1.8,1.045,2.75,2.943,2.75,4.954,0,10.759-5.163,15.391-17.82a7.205,7.205,0,0,1,7.012-5.1Z" transform="translate(-3891.626 -3887.712)"/><path class="b" d="M163.141,217.321c3.217,0,6.321,2.01,6.321,5.163a8.139,8.139,0,0,1-.418,2.107c-6,17.289-17.289,27.341-30.766,27.341-10.856,0-20.457-6.32-20.457-17.08a21.953,21.953,0,0,1,1.271-7.06v.113l8.846-25.411h-3.474c-2.847,0-4.632-2.525-4.632-5.484,0-3.361,2.412-6.948,8.041-6.948h4.439l8.427-23.513a8.347,8.347,0,0,1,7.688-6.111,6.9,6.9,0,0,1,7.382,7.06,7.255,7.255,0,0,1-.322,2.01l-7.06,20.554h4.825c4,0,5.806,2.412,5.806,5.163,0,3.474-2.847,7.269-8.234,7.269h-6.851l-10.325,29.415a8.891,8.891,0,0,0-.418,2.316c0,2.847,2.316,5.163,6.111,5.163,6.111,0,12.754-5.581,16.967-17.176A7.269,7.269,0,0,1,163.141,217.321Z" transform="translate(-3868.638 -3898.923)"/><path class="b" d="M199.924,206.147c3.217,0,6.111,1.8,6.111,5.066a6.433,6.433,0,0,1-.418,2.2c-6.964,20.136-23.61,27.341-38.261,27.341-15.391,0-27.2-7.8-27.2-20.345a24.125,24.125,0,0,1,1.351-7.511l6.224-18.029a23.272,23.272,0,0,1,22.243-16.083c11.9,0,19.814,7.688,19.814,17.691a23.142,23.142,0,0,1-.852,5.79,21.535,21.535,0,0,1-20.908,15.5,20.988,20.988,0,0,1-11.081-3.217l-.836,2.01a7.622,7.622,0,0,0-.531,2.943c0,4.825,4.825,8.54,12.545,8.54a26.31,26.31,0,0,0,24.67-17.173,7.109,7.109,0,0,1,7.126-4.732Zm-36.476-9.65-2.2,6.337a11.387,11.387,0,0,0,5.468,1.254c3.217,0,6.337-1.254,7.382-4.825a6.932,6.932,0,0,0,.418-2.525,5,5,0,0,0-4.825-5.484,7.125,7.125,0,0,0-6.24,5.195Z" transform="translate(-3855.049 -3887.749)"/><path class="b" d="M229.612,208.2c3.361,0,6.851,2.107,6.851,5.275a5.436,5.436,0,0,1-.322,1.689C229.918,232.972,219.5,243.2,208,243.2c-8.749,0-16.083-6.015-16.083-15.182a20.169,20.169,0,0,1,1.271-6.739l4.632-12.866a7.191,7.191,0,0,0,.322-1.9c0-3.586-3.908-4.326-6.851-5.275l-5.854,15.745a7.7,7.7,0,0,1-7.269,5.066,5.243,5.243,0,0,1-5.693-5.275,10.2,10.2,0,0,1,.306-2.316l7.7-20.763a12.175,12.175,0,0,1-2.638-7.478c0-6.015,3.683-11.5,9.907-11.5a9.264,9.264,0,0,1,9.071,8.958,7.494,7.494,0,0,1-.434,2.638c5.9,1.8,18.56,6.015,18.56,16.083a20.139,20.139,0,0,1-1.061,5.79l-6.208,17.289a6.676,6.676,0,0,0-.434,2.316c0,1.48.74,2.847,2.219,2.847,4.423,0,9.794-7.7,13.815-18.029a6.16,6.16,0,0,1,6.337-4.407Z" transform="translate(-3835.396 -3890.224)"/><path class="b" d="M270.077,205.274c3.217,0,6.208,1.785,6.208,5.163a7.122,7.122,0,0,1-.531,2.428c-7.269,20.554-18.752,27.823-29.512,27.823-8.958,0-16.967-5.163-16.967-14.861a21.632,21.632,0,0,1,1.367-6.964l7.7-21.712a8.812,8.812,0,0,0,.531-2.638,3.1,3.1,0,0,0-3.217-3.217c-2.943,0-6.626,2.525-9.473,7.8-3.586,10.116-8.653,24.558-12.335,34.787a10.116,10.116,0,0,1-9.489,7.06c-3.377,0-6.433-2.01-6.433-5.9a8.33,8.33,0,0,1,.418-2.638l17.611-49.229a6.883,6.883,0,0,1,6.851-4.31c2.847,0,5.484,1.045,6.112,2.943a16.5,16.5,0,0,1,10.116-2.943,15.134,15.134,0,0,1,15.6,14.748,17.691,17.691,0,0,1-1.158,5.806l-8.218,23.4a9.426,9.426,0,0,0-.531,2.622c0,1.8,1.061,2.75,2.959,2.75,4.953,0,10.743-5.163,15.375-17.82a7.237,7.237,0,0,1,7.012-5.1Z" transform="translate(-3819.909 -3887.712)"/><path class="a" d="M250.589,234.678a3.683,3.683,0,0,0,4.021,3.587c4.214,0,9.794-4.326,14.748-18.029a7.253,7.253,0,0,1,6.964-4.744c3.217,0,6.321,2.01,6.321,5.275a6.032,6.032,0,0,1-.322,1.9c-7.382,21.824-18.752,28.145-29.094,28.145-9.65,0-17.916-5.693-17.916-15.6a29.157,29.157,0,0,1,1.48-6.755c3.377-9.794,7.8-22.339,11.258-32.246,1.608-4.954,5.163-7.269,8.427-7.269a6.787,6.787,0,0,1,7.06,7.06,16.183,16.183,0,0,1-.949,3.892l-11.692,33.1A5.356,5.356,0,0,0,250.589,234.678Zm5.9-64.186a8.653,8.653,0,1,1,4.211,7.8,8.653,8.653,0,0,1-4.211-7.8Z" transform="translate(-3797.171 -3897.833)"/><path class="a" d="M269.4,204.313a5.211,5.211,0,0,1-5.275-5.484c0-3.377,2.75-7.06,9.28-7.06h2.75l6.433-18.125c3.908-10.969,12.866-16.083,21.824-16.083a16.083,16.083,0,0,1,16.34,16.244,19.755,19.755,0,0,1-.531,4.214c-1.158,5.163-4.632,7.269-8.041,7.269-3.683,0-7.269-2.525-7.269-6.224a6.32,6.32,0,0,1,.74-2.943,7.188,7.188,0,0,0,.306-2.01,2.718,2.718,0,0,0-3.056-3.056,5.5,5.5,0,0,0-4.632,4.117l-5.9,16.549H296.7a5.709,5.709,0,0,1,6.111,5.693,6.884,6.884,0,0,1-7.269,6.739l-7.7.113-29.078,82.987c-1.689,4.953-5.05,6.964-8.331,6.964a7.35,7.35,0,0,1-7.575-7.269,10.05,10.05,0,0,1,.627-3.377l28.145-79.256Z" transform="translate(-3792.585 -3900.664)"/><path class="a" d="M295.32,225.2a2.831,2.831,0,0,0,3.056,3.056c2.847,0,6.546-2.107,9.907-7.8l12.126-35.623a8.041,8.041,0,0,1,7.591-6,7.511,7.511,0,0,1,7.687,7.269,7.719,7.719,0,0,1-.418,2.525l-14.861,42.909A37.537,37.537,0,0,0,339.6,210.241c1.48-4.117,4.535-5.9,7.382-5.9a5.6,5.6,0,0,1,5.9,5.693,6.72,6.72,0,0,1-.434,2.412c-7.269,22.146-22.757,30.364-37.827,35.109-1.608,4.326-3.217,8.958-4.744,13.381-4.439,12.223-14.233,17.82-24.671,17.82S265.39,272,265.39,261.786c0-12.979,12.754-18.238,25.62-21.085-6.851-1.367-11.917-6.546-11.917-13.7a16.983,16.983,0,0,1,1.062-5.9l12.754-36.267a8.041,8.041,0,0,1,7.575-6,7.511,7.511,0,0,1,7.7,7.269,9.183,9.183,0,0,1-.643,3.217l-11.692,33.211a8.811,8.811,0,0,0-.531,2.67Zm-13.493,34.691a5.983,5.983,0,0,0-.418,2.2,3.216,3.216,0,0,0,3.474,3.377,8.6,8.6,0,0,0,7.913-5.9l2.525-7.173C288.469,254.195,283.306,256.189,281.827,259.888Z" transform="translate(-3778.874 -3887.725)"/></g></svg>