<svg xmlns="http://www.w3.org/2000/svg" width="105" height="106" viewBox="0 0 105 106"><defs><style>.a,.d{fill:none;}.a,.b{stroke:#fff;}.a{stroke-width:2px;}.b{fill:#fff;stroke-width:0.8px;}.c{stroke:none;}</style></defs><g transform="translate(-0.305 0.001)"><g class="a" transform="translate(0.305 -0.001)"><ellipse class="c" cx="52.5" cy="53" rx="52.5" ry="53"/><ellipse class="d" cx="52.5" cy="53" rx="51.5" ry="52"/></g><path class="b" d="M-116.542-436.117c.01-.043.019-.1.025-.141v-14.125c0-4.7-.05-14.289-.05-14.289,0-2.414-2.3-3.4-4.084-3.432-1.013-.016-2.046-.012-3.044-.01h-35.79c-2.844,0-4.322,1.26-4.322,3.221,0,.36-.139,19.34-.134,27.866a4.222,4.222,0,0,0,4.362,4.364h38.705A4.243,4.243,0,0,0-116.542-436.117Zm-43.82-29.437h40.276l.149.43-20.285,17.58-20.286-17.58Zm41.361,28.3c0,1.453-.644,2.1-2.088,2.1h-38.293a1.806,1.806,0,0,1-2.065-2.078v-25.35l.407.328.17.135c.1.078.176.14.25.205l8.029,6.957,11.322,9.808a1.33,1.33,0,0,0,2.106-.01q6.676-5.783,13.349-11.568l5.965-5.17.25-.211.594-.5Z" transform="translate(193.083 503.791)"/></g></svg>